<svg width="331" height="78" viewBox="0 0 331 78" fill="none" xmlns="http://www.w3.org/2000/svg">
<g clip-path="url(#clip0)">
<path d="M7.029 68.2583H21.582V0.245297H7.029V68.2583ZM122.317 15.8873C114.694 15.8873 108.556 19.2533 105.487 24.6983C102.22 19.2533 96.3788 15.8873 89.5478 15.8873C83.2118 15.8873 78.0638 18.9563 75.5888 23.8073V17.0753H61.1348V68.1593H75.5888V37.3703C75.5888 31.9253 79.6478 28.0643 85.4888 28.0643C90.8348 28.0643 94.4978 32.2223 94.4978 38.1623V68.1593H108.457V37.3703C108.457 31.9253 112.516 28.0643 118.357 28.0643C123.604 28.0643 127.366 32.2223 127.366 38.1623V68.1593H141.226V35.6873C141.226 24.1043 133.009 15.8873 122.317 15.8873ZM172.479 69.4463C186.141 69.4463 195.843 59.7443 195.843 46.0823V0.245297H181.29V44.8943C181.29 51.5273 176.934 56.1803 170.895 56.1803C166.341 56.1803 161.589 53.1113 159.411 48.6563L149.709 58.1603C154.263 64.7933 163.767 69.4463 172.479 69.4463ZM232.164 69.4463C247.509 69.4463 260.082 57.3683 260.082 42.6173C260.082 27.8663 247.509 15.8873 232.164 15.8873C216.819 15.8873 204.246 27.8663 204.246 42.6173C204.246 57.3683 216.819 69.4463 232.164 69.4463ZM232.164 57.2693C224.442 57.2693 218.106 50.6363 218.106 42.6173C218.106 34.5983 224.442 28.0643 232.164 28.0643C239.886 28.0643 246.222 34.5983 246.222 42.6173C246.222 50.6363 239.886 57.2693 232.164 57.2693ZM300.4 15.8873C293.272 15.8873 287.233 19.0553 283.174 24.3023V-0.942705H268.72V68.2583H283.174V61.0313C287.233 66.2783 293.272 69.4463 300.4 69.4463C314.062 69.4463 323.863 58.3583 323.863 42.6173C323.863 26.9753 314.062 15.8873 300.4 15.8873ZM296.242 57.2693C288.52 57.2693 283.174 51.2303 283.174 42.6173C283.174 34.1033 288.52 28.0643 296.242 28.0643C304.162 28.0643 309.805 34.1033 309.805 42.6173C309.805 51.2303 304.162 57.2693 296.242 57.2693Z" fill="white"/>
<circle cx="41.9238" cy="9.01069" r="9.01069" fill="#F33232"/>
<path d="M37.8057 25.368C50.3839 22.2851 50.93 11.6549 50.93 9.16296L44.9863 9.76796C44.9863 19.6943 40.2514 23.4663 37.8057 25.368Z" fill="#F33232"/>
</g>
<defs>
<clipPath id="clip0">
<path d="M0 0H331V78H0V0Z" fill="white"/>
</clipPath>
</defs>
</svg>
